<svg width="66" height="24" viewBox="0 0 66 24" fill="none" xmlns="http://www.w3.org/2000/svg">
<path d="M9.40975 13.064C8.73775 13.304 8.40175 13.088 8.40175 12.416V10.76H0.67375V7.304H8.40175V5.84H0.72175V2.288H12.4818V5.816H15.4098V1.376H19.4898V12.536L16.4178 13.616C15.7458 13.856 15.4098 13.64 15.4098 12.968V9.464H12.4818V11.984L9.40975 13.064ZM4.03375 23.312V14.12H19.4898V23.312H4.03375ZM15.4098 17.672H8.11375V19.76H15.4098V17.672ZM21.6033 13.76V10.304H23.2593V5.744H22.1553V2.288H32.7153V5.744H31.5633V10.304H33.0993V13.76H21.6033ZM40.5393 23.768L33.3393 19.736L26.1393 23.768L23.9793 20.768L31.2273 16.688V14.384H35.4513V16.688L42.6993 20.768L40.5393 23.768ZM39.2433 15.68C38.5713 15.904 38.2353 15.688 38.2353 15.032V1.376H41.9073V14.768L39.2433 15.68ZM34.8753 13.808C34.2033 14.032 33.8672 13.816 33.8672 13.16V9.776H32.1633V6.224H33.8672V1.616H37.5393V12.896L34.8753 13.808ZM26.8833 10.304H27.9393V5.744H26.8833V10.304ZM43.7088 15.776V12.752H52.3728V12.032H49.7088C49.0208 12.032 48.4448 11.936 47.9808 11.744C47.5168 11.552 47.1408 11.304 46.8528 11C46.5648 10.68 46.3568 10.328 46.2288 9.944C46.1168 9.56 46.0608 9.176 46.0608 8.792C46.0608 8.408 46.1168 8.024 46.2288 7.64C46.3568 7.256 46.5648 6.912 46.8528 6.608C47.1408 6.288 47.5168 6.032 47.9808 5.84C48.4448 5.648 49.0208 5.552 49.7088 5.552H59.1648C59.8528 5.552 60.4288 5.648 60.8928 5.84C61.3568 6.032 61.7328 6.288 62.0208 6.608C62.3088 6.912 62.5088 7.256 62.6208 7.64C62.7488 8.024 62.8128 8.408 62.8128 8.792C62.8128 9.176 62.7488 9.56 62.6208 9.944C62.5088 10.328 62.3088 10.68 62.0208 11C61.7328 11.304 61.3568 11.552 60.8928 11.744C60.4288 11.936 59.8528 12.032 59.1648 12.032H56.5008V12.752H65.1648V15.776H43.7088ZM46.2288 23.312V16.232H62.6448V23.312H46.2288ZM45.4608 5.216V2.216H52.3248V0.704H56.5488V2.216H63.4128V5.216H45.4608ZM58.6848 8.792C58.6848 8.584 58.6208 8.448 58.4928 8.384C58.3648 8.32 58.2128 8.288 58.0368 8.288H50.8128C50.6368 8.288 50.4848 8.32 50.3568 8.384C50.2448 8.448 50.1888 8.584 50.1888 8.792C50.1888 9 50.2448 9.144 50.3568 9.224C50.4848 9.288 50.6368 9.32 50.8128 9.32H58.0368C58.2128 9.32 58.3648 9.288 58.4928 9.224C58.6208 9.144 58.6848 9 58.6848 8.792ZM58.5648 19.352H50.3088V20.192H58.5648V19.352Z" fill="#F4B183"/>
</svg>
