<svg width="176" height="33" viewBox="0 0 176 33" fill="none" xmlns="http://www.w3.org/2000/svg">
<path d="M20.436 18.51C20.316 19.77 19.986 20.9 19.446 21.9C18.906 22.88 18.186 23.71 17.286 24.39C16.406 25.09 15.386 25.62 14.226 25.98C13.066 26.34 11.816 26.52 10.476 26.52C9.05598 26.52 7.72598 26.31 6.48598 25.89C5.26598 25.49 4.20598 24.9 3.30598 24.12C2.40598 23.36 1.69598 22.42 1.17598 21.3C0.675977 20.18 0.425977 18.91 0.425977 17.49V10.89C0.425977 9.47 0.675977 8.2 1.17598 7.08C1.69598 5.96 2.40598 5.02 3.30598 4.26C4.20598 3.48 5.26598 2.89 6.48598 2.49C7.72598 2.07 9.05598 1.86 10.476 1.86C11.816 1.86 13.066 2.04 14.226 2.4C15.386 2.76 16.406 3.29 17.286 3.99C18.186 4.67 18.906 5.51 19.446 6.51C19.986 7.49 20.316 8.61 20.436 9.87L15.276 10.26C14.956 7.66 13.356 6.36 10.476 6.36C7.17598 6.36 5.52598 8.09 5.52598 11.55V16.83C5.52598 20.29 7.17598 22.02 10.476 22.02C13.356 22.02 14.956 20.72 15.276 18.12L20.436 18.51ZM38.8412 19.05C38.8412 20.37 38.6312 21.5 38.2112 22.44C37.7912 23.38 37.2212 24.15 36.5012 24.75C35.7812 25.37 34.9412 25.82 33.9812 26.1C33.0212 26.38 31.9912 26.52 30.8912 26.52C29.7912 26.52 28.7612 26.38 27.8012 26.1C26.8412 25.82 26.0012 25.37 25.2812 24.75C24.5612 24.15 23.9912 23.38 23.5712 22.44C23.1512 21.5 22.9412 20.37 22.9412 19.05V15.75C22.9412 14.43 23.1512 13.3 23.5712 12.36C23.9912 11.42 24.5612 10.65 25.2812 10.05C26.0012 9.43 26.8412 8.98 27.8012 8.7C28.7612 8.42 29.7912 8.28 30.8912 8.28C31.9912 8.28 33.0212 8.42 33.9812 8.7C34.9412 8.98 35.7812 9.43 36.5012 10.05C37.2212 10.65 37.7912 11.42 38.2112 12.36C38.6312 13.3 38.8412 14.43 38.8412 15.75V19.05ZM33.8012 15.6C33.8012 14.64 33.5212 13.93 32.9612 13.47C32.4212 13.01 31.7312 12.78 30.8912 12.78C30.0512 12.78 29.3512 13.01 28.7912 13.47C28.2512 13.93 27.9812 14.64 27.9812 15.6V19.2C27.9812 20.16 28.2512 20.87 28.7912 21.33C29.3512 21.79 30.0512 22.02 30.8912 22.02C31.7312 22.02 32.4212 21.79 32.9612 21.33C33.5212 20.87 33.8012 20.16 33.8012 19.2V15.6ZM43.4418 26.55C42.8618 26.75 42.4518 26.77 42.2118 26.61C41.9718 26.45 41.8518 26.11 41.8518 25.59V8.4H46.5318V9.42C47.0118 9.02 47.5418 8.7 48.1218 8.46C48.7018 8.22 49.3118 8.1 49.9518 8.1C51.0318 8.1 51.9918 8.28 52.8318 8.64C53.6918 9 54.4018 9.57 54.9618 10.35C55.4818 9.67 56.1018 9.13 56.8218 8.73C57.5618 8.31 58.3718 8.1 59.2518 8.1C60.1918 8.1 61.0518 8.24 61.8318 8.52C62.6118 8.78 63.2718 9.21 63.8118 9.81C64.3718 10.39 64.8018 11.14 65.1018 12.06C65.4018 12.98 65.5518 14.1 65.5518 15.42V25.35L61.9218 26.55C61.3418 26.75 60.9518 26.77 60.7518 26.61C60.5518 26.47 60.4518 26.13 60.4518 25.59V15.27C60.4518 14.33 60.2718 13.65 59.9118 13.23C59.5518 12.81 59.0318 12.6 58.3518 12.6C57.6918 12.6 57.1818 12.88 56.8218 13.44C56.4818 14 56.2918 14.72 56.2518 15.6V25.35L52.6218 26.55C52.0418 26.75 51.6518 26.77 51.4518 26.61C51.2518 26.47 51.1518 26.13 51.1518 25.59V15.27C51.1518 14.33 50.9718 13.65 50.6118 13.23C50.2518 12.81 49.7318 12.6 49.0518 12.6C48.3518 12.6 47.8218 12.91 47.4618 13.53C47.1218 14.13 46.9518 14.91 46.9518 15.87V25.35L43.4418 26.55ZM70.7464 26.55C70.1664 26.75 69.7564 26.77 69.5164 26.61C69.2764 26.45 69.1564 26.11 69.1564 25.59V8.4H73.8364V9.42C74.3164 9.02 74.8464 8.7 75.4264 8.46C76.0064 8.22 76.6164 8.1 77.2564 8.1C78.3364 8.1 79.2964 8.28 80.1364 8.64C80.9964 9 81.7064 9.57 82.2664 10.35C82.7864 9.67 83.4064 9.13 84.1264 8.73C84.8664 8.31 85.6764 8.1 86.5564 8.1C87.4964 8.1 88.3564 8.24 89.1364 8.52C89.9164 8.78 90.5764 9.21 91.1164 9.81C91.6764 10.39 92.1064 11.14 92.4064 12.06C92.7064 12.98 92.8564 14.1 92.8564 15.42V25.35L89.2264 26.55C88.6464 26.75 88.2564 26.77 88.0564 26.61C87.8564 26.47 87.7564 26.13 87.7564 25.59V15.27C87.7564 14.33 87.5764 13.65 87.2164 13.23C86.8564 12.81 86.3364 12.6 85.6564 12.6C84.9964 12.6 84.4864 12.88 84.1264 13.44C83.7864 14 83.5964 14.72 83.5564 15.6V25.35L79.9264 26.55C79.3464 26.75 78.9564 26.77 78.7564 26.61C78.5564 26.47 78.4564 26.13 78.4564 25.59V15.27C78.4564 14.33 78.2764 13.65 77.9164 13.23C77.5564 12.81 77.0364 12.6 76.3564 12.6C75.6564 12.6 75.1264 12.91 74.7664 13.53C74.4264 14.13 74.2564 14.91 74.2564 15.87V25.35L70.7464 26.55ZM109.241 26.43C108.401 26.71 107.981 26.44 107.981 25.62V24.9C107.461 25.34 106.861 25.68 106.181 25.92C105.501 26.16 104.761 26.28 103.961 26.28C102.941 26.28 101.971 26.13 101.051 25.83C100.151 25.55 99.3611 25.1 98.6811 24.48C98.0011 23.86 97.4611 23.07 97.0611 22.11C96.6611 21.15 96.4611 20 96.4611 18.66V8.88H101.501V18.81C101.501 19.83 101.791 20.58 102.371 21.06C102.951 21.54 103.681 21.78 104.561 21.78C105.401 21.78 106.111 21.51 106.691 20.97C107.271 20.41 107.581 19.64 107.621 18.66V8.88H112.661V25.29L109.241 26.43ZM117.526 26.43C116.686 26.71 116.266 26.44 116.266 25.62V8.58H121.306V9.21C121.806 8.87 122.356 8.6 122.956 8.4C123.576 8.2 124.246 8.1 124.966 8.1C125.986 8.1 126.946 8.25 127.846 8.55C128.766 8.83 129.566 9.28 130.246 9.9C130.926 10.52 131.466 11.31 131.866 12.27C132.266 13.23 132.466 14.38 132.466 15.72V25.11L128.686 26.43C127.846 26.71 127.426 26.44 127.426 25.62V15.57C127.426 14.55 127.136 13.8 126.556 13.32C125.976 12.84 125.246 12.6 124.366 12.6C123.506 12.6 122.786 12.88 122.206 13.44C121.646 13.98 121.346 14.74 121.306 15.72V25.11L117.526 26.43ZM136.191 6.12V0.899999H141.651V6.12H136.191ZM137.661 26.43C136.821 26.71 136.401 26.44 136.401 25.62V8.88H141.441V25.11L137.661 26.43ZM155.948 25.92H151.778C150.158 25.92 148.978 25.54 148.238 24.78C147.518 24.02 147.158 22.89 147.158 21.39V13.32H144.458V8.88H147.158V5.19L150.938 3.87C151.778 3.59 152.198 3.86 152.198 4.68V8.88H155.858V13.32H152.198V20.82C152.198 21.06 152.268 21.23 152.408 21.33C152.568 21.43 152.768 21.48 153.008 21.48H156.458L155.948 25.92ZM166.333 32.22H161.023L163.663 25.8L157.363 8.88H162.643L166.123 19.41L169.783 8.88H175.063L166.333 32.22Z" fill="#F4B183"/>
</svg>
