<svg width="254" height="303" viewBox="0 0 254 303" fill="none" xmlns="http://www.w3.org/2000/svg">
<path d="M129.953 108.572C127.487 127.496 115.647 143.999 98 143.999C80.3528 143.999 66.047 128.139 66.047 108.572C66.047 89.0063 83.3998 68.9962 101.047 68.9962C122.047 65.4999 133.547 80.9947 129.953 108.572Z" fill="#955525"/>
<circle cx="107.5" cy="77.5" r="70" fill="#D9D9D9" fill-opacity="0.01" stroke="#D9D9D9" stroke-width="15"/>
<path d="M155 136L225 207.5" stroke="#D9D9D9" stroke-width="15" stroke-linecap="round"/>
<ellipse cx="70" cy="66.5" rx="11" ry="12.5" fill="#F3C679"/>
<ellipse cx="99" cy="52.5" rx="11" ry="12.5" fill="#F3C679"/>
<ellipse cx="130" cy="58.5" rx="11" ry="12.5" fill="#F3C679"/>
<ellipse cx="144" cy="88.5" rx="11" ry="12.5" fill="#F3C679"/>
<path d="M7.73089 263.406V253.864H23.7989V263.406H7.73089ZM13.6329 252.304C13.0436 252.512 12.7489 252.347 12.7489 251.81V244.036H4.27289V240.994H16.3109V244.738H20.2629V239.98H23.7989V252.174L21.1209 253.11C20.5489 253.318 20.2629 253.145 20.2629 252.59V247.858H16.3109V251.394L13.6329 252.304ZM20.2629 256.906H11.2669V260.364H20.2629V256.906ZM40.1545 253.942C39.5998 254.133 39.3225 253.968 39.3225 253.448V251.186L36.8785 252.876L33.1605 248.196L29.2085 253.162L26.5565 251.316L31.3925 245.31V240.526H34.9545V245.336L39.3225 250.744V240.24H42.7025V244.712H44.7045V239.98H48.0845V253.084L45.5365 253.942C44.9818 254.133 44.7045 253.968 44.7045 253.448V247.936H42.7025V253.084L40.1545 253.942ZM45.4065 263.848C44.8345 264.056 44.5485 263.883 44.5485 263.328V257.738H31.4965V254.696H48.0845V262.912L45.4065 263.848ZM71.0701 244.4C71.0701 244.885 70.9835 245.371 70.8101 245.856C70.6541 246.324 70.3855 246.757 70.0041 247.156C69.6228 247.537 69.1201 247.849 68.4961 248.092C67.8895 248.335 67.1441 248.456 66.2601 248.456H57.9921C57.1081 248.456 56.3541 248.335 55.7301 248.092C55.1235 247.849 54.6295 247.537 54.2481 247.156C53.8668 246.757 53.5895 246.324 53.4161 245.856C53.2601 245.371 53.1821 244.885 53.1821 244.4C53.1821 243.932 53.2601 243.455 53.4161 242.97C53.5895 242.485 53.8668 242.051 54.2481 241.67C54.6295 241.271 55.1235 240.951 55.7301 240.708C56.3541 240.465 57.1081 240.344 57.9921 240.344H66.2601C67.1441 240.344 67.8895 240.465 68.4961 240.708C69.1201 240.951 69.6228 241.271 70.0041 241.67C70.3855 242.051 70.6541 242.485 70.8101 242.97C70.9835 243.455 71.0701 243.932 71.0701 244.4ZM50.8421 252.33V249.444H73.4101V252.33H50.8421ZM53.7021 263.562V257.166H66.9361V256.126H53.7021V253.396H70.5501V259.662H57.3161V260.832H70.9401V263.562H53.7021ZM67.4821 244.4C67.4821 244.053 67.3608 243.793 67.1181 243.62C66.8928 243.447 66.5808 243.36 66.1821 243.36H58.0701C57.6715 243.36 57.3508 243.447 57.1081 243.62C56.8828 243.793 56.7701 244.053 56.7701 244.4C56.7701 244.747 56.8828 245.015 57.1081 245.206C57.3508 245.379 57.6715 245.466 58.0701 245.466H66.1821C66.5808 245.466 66.8928 245.379 67.1181 245.206C67.3608 245.015 67.4821 244.747 67.4821 244.4ZM80.0668 254.8V251.94H89.6868V250.666H82.9268V240.656H99.9048V243.36H86.5408V244.374H99.7748V246.818H86.5408V247.962H100.165V250.666H93.2748V251.94H102.635V254.8H80.0668ZM100.243 259.61C100.243 260.078 100.156 260.546 99.9828 261.014C99.8094 261.499 99.5321 261.933 99.1508 262.314C98.7868 262.695 98.2928 263.007 97.6688 263.25C97.0621 263.493 96.3168 263.614 95.4328 263.614H87.2688C86.3848 263.614 85.6308 263.493 85.0068 263.25C84.4001 263.007 83.9061 262.695 83.5248 262.314C83.1608 261.933 82.8921 261.499 82.7188 261.014C82.5454 260.546 82.4588 260.078 82.4588 259.61C82.4588 259.125 82.5454 258.648 82.7188 258.18C82.8921 257.695 83.1608 257.261 83.5248 256.88C83.9061 256.499 84.4001 256.195 85.0068 255.97C85.6308 255.727 86.3848 255.606 87.2688 255.606H95.4328C96.3168 255.606 97.0621 255.727 97.6688 255.97C98.2928 256.195 98.7868 256.499 99.1508 256.88C99.5321 257.261 99.8094 257.695 99.9828 258.18C100.156 258.648 100.243 259.125 100.243 259.61ZM96.6548 259.61C96.6548 258.865 96.2041 258.492 95.3028 258.492H87.3988C86.4974 258.492 86.0468 258.865 86.0468 259.61C86.0468 260.355 86.4974 260.728 87.3988 260.728H95.3028C96.2041 260.728 96.6548 260.355 96.6548 259.61ZM117.248 262.808C116.676 262.999 116.39 262.825 116.39 262.288V240.37H119.744V249.522H121.408V239.98H124.736V263.042L122.266 263.848C121.694 264.039 121.408 263.865 121.408 263.328V252.746H119.744V262.002L117.248 262.808ZM115.142 255.138C115.142 256.005 115.004 256.741 114.726 257.348C114.466 257.955 114.102 258.457 113.634 258.856C113.166 259.237 112.612 259.523 111.97 259.714C111.346 259.887 110.67 259.974 109.942 259.974C109.214 259.974 108.53 259.887 107.888 259.714C107.247 259.523 106.692 259.237 106.224 258.856C105.756 258.457 105.384 257.955 105.106 257.348C104.846 256.741 104.716 256.005 104.716 255.138V251.524C104.716 250.657 104.846 249.921 105.106 249.314C105.384 248.69 105.756 248.187 106.224 247.806C106.692 247.407 107.247 247.121 107.888 246.948C108.53 246.757 109.214 246.662 109.942 246.662C110.67 246.662 111.346 246.757 111.97 246.948C112.612 247.121 113.166 247.407 113.634 247.806C114.102 248.187 114.466 248.69 114.726 249.314C115.004 249.921 115.142 250.657 115.142 251.524V255.138ZM104.222 245.83V242.866H108.148V240.084H111.736V242.866H115.454V245.83H104.222ZM111.762 251.628C111.762 250.969 111.589 250.493 111.242 250.198C110.896 249.886 110.462 249.73 109.942 249.73C109.422 249.73 108.989 249.886 108.642 250.198C108.296 250.493 108.122 250.969 108.122 251.628V255.008C108.122 255.667 108.296 256.152 108.642 256.464C108.989 256.776 109.422 256.932 109.942 256.932C110.462 256.932 110.896 256.776 111.242 256.464C111.589 256.152 111.762 255.667 111.762 255.008V251.628ZM153.025 246.35C153.025 246.991 152.921 247.633 152.713 248.274C152.505 248.898 152.158 249.47 151.673 249.99C151.188 250.493 150.555 250.9 149.775 251.212C149.012 251.524 148.068 251.68 146.941 251.68H141.741C140.614 251.68 139.661 251.524 138.881 251.212C138.118 250.9 137.494 250.493 137.009 249.99C136.524 249.47 136.177 248.898 135.969 248.274C135.761 247.633 135.657 246.991 135.657 246.35C135.657 245.709 135.761 245.076 135.969 244.452C136.177 243.811 136.524 243.239 137.009 242.736C137.494 242.216 138.118 241.8 138.881 241.488C139.661 241.159 140.614 240.994 141.741 240.994H146.941C148.068 240.994 149.012 241.159 149.775 241.488C150.555 241.8 151.188 242.216 151.673 242.736C152.158 243.239 152.505 243.811 152.713 244.452C152.921 245.076 153.025 245.709 153.025 246.35ZM139.297 263.848C138.725 264.056 138.439 263.883 138.439 263.328V256.542H133.057V253.448H155.625V256.542H150.243V262.912L147.539 263.848C146.967 264.056 146.681 263.883 146.681 263.328V256.542H142.001V262.912L139.297 263.848ZM149.437 246.35C149.437 245.57 149.203 244.989 148.735 244.608C148.284 244.209 147.643 244.01 146.811 244.01H141.871C141.039 244.01 140.389 244.209 139.921 244.608C139.47 244.989 139.245 245.57 139.245 246.35C139.245 247.13 139.47 247.711 139.921 248.092C140.389 248.473 141.039 248.664 141.871 248.664H146.811C147.643 248.664 148.284 248.473 148.735 248.092C149.203 247.711 149.437 247.13 149.437 246.35ZM174.529 263.848C173.957 264.056 173.671 263.883 173.671 263.328V239.98H177.207V262.912L174.529 263.848ZM167.041 258.934C166.451 259.142 166.157 258.969 166.157 258.414V244.79H157.993V241.748H169.719V257.998L167.041 258.934ZM180.588 253.656V250.692H190.338V249.158H183.448V240.734H200.426V243.75H186.984V246.142H200.686V249.158H193.926V250.692H203.156V253.656H180.588ZM200.764 259.116C200.764 259.636 200.669 260.156 200.478 260.676C200.288 261.213 199.984 261.69 199.568 262.106C199.152 262.539 198.606 262.886 197.93 263.146C197.272 263.406 196.466 263.536 195.512 263.536H188.232C187.262 263.536 186.438 263.406 185.762 263.146C185.104 262.886 184.566 262.539 184.15 262.106C183.734 261.69 183.431 261.213 183.24 260.676C183.067 260.156 182.98 259.636 182.98 259.116C182.98 258.596 183.067 258.076 183.24 257.556C183.431 257.019 183.734 256.542 184.15 256.126C184.566 255.693 185.104 255.346 185.762 255.086C186.438 254.826 187.262 254.696 188.232 254.696H195.512C196.466 254.696 197.272 254.826 197.93 255.086C198.606 255.346 199.152 255.693 199.568 256.126C199.984 256.542 200.288 257.019 200.478 257.556C200.669 258.076 200.764 258.596 200.764 259.116ZM197.176 259.116C197.176 258.163 196.622 257.686 195.512 257.686H188.232C187.123 257.686 186.568 258.163 186.568 259.116C186.568 260.069 187.123 260.546 188.232 260.546H195.512C196.622 260.546 197.176 260.069 197.176 259.116ZM207.214 263.562V257.166H220.448V256.126H207.214V253.396H213.844V251.94H204.354V249.08H226.922V251.94H217.432V253.396H224.062V259.662H210.828V260.832H224.452V263.562H207.214ZM207.214 248.118V240.734H224.062V248.118H207.214ZM220.526 243.62H210.75V245.232H220.526V243.62ZM248.347 244.4C248.347 244.885 248.261 245.371 248.087 245.856C247.931 246.324 247.663 246.757 247.281 247.156C246.9 247.537 246.397 247.849 245.773 248.092C245.167 248.335 244.421 248.456 243.537 248.456H235.269C234.385 248.456 233.631 248.335 233.007 248.092C232.401 247.849 231.907 247.537 231.525 247.156C231.144 246.757 230.867 246.324 230.693 245.856C230.537 245.371 230.459 244.885 230.459 244.4C230.459 243.932 230.537 243.455 230.693 242.97C230.867 242.485 231.144 242.051 231.525 241.67C231.907 241.271 232.401 240.951 233.007 240.708C233.631 240.465 234.385 240.344 235.269 240.344H243.537C244.421 240.344 245.167 240.465 245.773 240.708C246.397 240.951 246.9 241.271 247.281 241.67C247.663 242.051 247.931 242.485 248.087 242.97C248.261 243.455 248.347 243.932 248.347 244.4ZM228.119 252.33V249.444H250.687V252.33H228.119ZM230.979 263.562V257.166H244.213V256.126H230.979V253.396H247.827V259.662H234.593V260.832H248.217V263.562H230.979ZM244.759 244.4C244.759 244.053 244.638 243.793 244.395 243.62C244.17 243.447 243.858 243.36 243.459 243.36H235.347C234.949 243.36 234.628 243.447 234.385 243.62C234.16 243.793 234.047 244.053 234.047 244.4C234.047 244.747 234.16 245.015 234.385 245.206C234.628 245.379 234.949 245.466 235.347 245.466H243.459C243.858 245.466 244.17 245.379 244.395 245.206C244.638 245.015 244.759 244.747 244.759 244.4ZM87.3459 292.848L79.9879 289.494L72.6299 292.848L70.9919 290.118L78.1419 286.92V286.218H71.9539V283.202H88.0219V286.218H81.8339V286.92L88.9839 290.118L87.3459 292.848ZM80.3519 282.006L75.4119 277.976L70.2379 282.266L68.0019 279.926L73.6179 275.376V273.816H68.9119V270.774H73.5919V268.694H77.2319V270.774H81.7819V273.816H77.2059V275.35L82.6139 279.666L80.3519 282.006ZM85.2139 282.708C84.9366 282.829 84.7199 282.803 84.5639 282.63C84.4253 282.439 84.3559 282.214 84.3559 281.954V268.98H87.8919V274.024H91.4799V277.144H87.8919V281.538L85.2139 282.708ZM105.34 281.72C105.34 282.743 105.175 283.627 104.846 284.372C104.534 285.1 104.092 285.698 103.52 286.166C102.965 286.634 102.315 286.981 101.57 287.206C100.824 287.431 100.027 287.544 99.1776 287.544C98.3282 287.544 97.5309 287.431 96.7856 287.206C96.0402 286.981 95.3816 286.634 94.8096 286.166C94.2549 285.698 93.8129 285.1 93.4836 284.372C93.1716 283.627 93.0156 282.743 93.0156 281.72V276.052C93.0156 275.029 93.1716 274.154 93.4836 273.426C93.8129 272.681 94.2549 272.074 94.8096 271.606C95.3816 271.138 96.0402 270.791 96.7856 270.566C97.5309 270.341 98.3282 270.228 99.1776 270.228C100.027 270.228 100.824 270.341 101.57 270.566C102.315 270.791 102.965 271.138 103.52 271.606C104.092 272.074 104.534 272.681 104.846 273.426C105.175 274.154 105.34 275.029 105.34 276.052V281.72ZM108.876 292.848C108.304 293.056 108.018 292.883 108.018 292.328V268.98H111.554V277.014H115.298V280.134H111.554V291.912L108.876 292.848ZM101.804 275.948C101.804 275.012 101.552 274.336 101.05 273.92C100.564 273.504 99.9402 273.296 99.1776 273.296C98.4149 273.296 97.7822 273.504 97.2796 273.92C96.7942 274.336 96.5516 275.012 96.5516 275.948V281.824C96.5516 282.76 96.7942 283.436 97.2796 283.852C97.7822 284.268 98.4149 284.476 99.1776 284.476C99.9402 284.476 100.564 284.268 101.05 283.852C101.552 283.436 101.804 282.76 101.804 281.824V275.948ZM115.715 290.3V287.206H125.205V283.54H118.705V270.592H122.241V274.05H131.757V270.592H135.293V283.54H128.793V287.206H138.283V290.3H115.715ZM131.757 277.04H122.241V280.55H131.757V277.04ZM148.789 287.128L145.565 281.148L142.003 287.44L139.091 285.958L143.823 277.664V270.28H147.359V277.794L151.701 285.646L148.789 287.128ZM152.949 291.808C152.377 291.999 152.091 291.825 152.091 291.288V278.47H149.101V275.35H152.091V269.37H155.497V290.95L152.949 291.808ZM157.837 292.848C157.282 293.039 157.005 292.865 157.005 292.328V268.98H160.385V291.99L157.837 292.848ZM183.344 276.676C183.344 277.543 183.214 278.366 182.954 279.146C182.694 279.926 182.278 280.611 181.706 281.2C181.134 281.789 180.398 282.257 179.496 282.604C178.612 282.933 177.538 283.098 176.272 283.098H172.788C171.523 283.098 170.44 282.933 169.538 282.604C168.654 282.257 167.926 281.789 167.354 281.2C166.782 280.611 166.366 279.926 166.106 279.146C165.846 278.366 165.716 277.543 165.716 276.676C165.716 275.809 165.846 274.986 166.106 274.206C166.366 273.426 166.782 272.75 167.354 272.178C167.926 271.589 168.654 271.121 169.538 270.774C170.44 270.427 171.523 270.254 172.788 270.254H176.272C177.538 270.254 178.612 270.427 179.496 270.774C180.398 271.121 181.134 271.589 181.706 272.178C182.278 272.75 182.694 273.426 182.954 274.206C183.214 274.986 183.344 275.809 183.344 276.676ZM163.246 290.222V287.128H168.55V283.644H172.112V287.128H176.948V283.644H180.51V287.128H185.814V290.222H163.246ZM179.756 276.676C179.756 275.636 179.462 274.813 178.872 274.206C178.283 273.599 177.364 273.296 176.116 273.296H172.944C171.696 273.296 170.778 273.599 170.188 274.206C169.599 274.813 169.304 275.636 169.304 276.676C169.304 277.716 169.599 278.539 170.188 279.146C170.778 279.753 171.696 280.056 172.944 280.056H176.116C177.364 280.056 178.283 279.753 178.872 279.146C179.462 278.539 179.756 277.716 179.756 276.676Z" fill="#BABABA"/>
</svg>
