<svg width="355" height="438" viewBox="0 0 355 438" fill="none" xmlns="http://www.w3.org/2000/svg">
<ellipse cx="175.91" cy="219.949" rx="87.3787" ry="96.928" transform="rotate(-14.5237 175.91 219.949)" fill="#DFA67B"/>
<ellipse cx="175.91" cy="219.949" rx="87.3787" ry="96.928" transform="rotate(-14.5237 175.91 219.949)" fill="#DFA67B"/>
<ellipse cx="175.91" cy="219.949" rx="87.3787" ry="96.928" transform="rotate(-14.5237 175.91 219.949)" fill="#DFA67B"/>
<ellipse cx="139.164" cy="209.348" rx="5.92858" ry="6.3988" transform="rotate(-14.5237 139.164 209.348)" fill="#DFA67B"/>
<ellipse cx="139.164" cy="209.348" rx="5.92858" ry="6.3988" transform="rotate(-14.5237 139.164 209.348)" fill="#DFA67B"/>
<ellipse cx="139.164" cy="209.348" rx="5.92858" ry="6.3988" transform="rotate(-14.5237 139.164 209.348)" fill="black"/>
<ellipse cx="177.886" cy="227.545" rx="9.70866" ry="10.4787" transform="rotate(-14.5237 177.886 227.545)" fill="#DFA67B"/>
<ellipse cx="177.886" cy="227.545" rx="9.70866" ry="10.4787" transform="rotate(-14.5237 177.886 227.545)" fill="#DFA67B"/>
<ellipse cx="177.886" cy="227.545" rx="9.70866" ry="10.4787" transform="rotate(-14.5237 177.886 227.545)" fill="black"/>
<ellipse cx="41.5253" cy="79.4733" rx="41.5253" ry="79.4733" transform="matrix(0.9979 0.0647676 -0.0221701 0.999754 44.5391 121.773)" fill="#DFA67B"/>
<ellipse cx="41.5253" cy="79.4733" rx="41.5253" ry="79.4733" transform="matrix(0.9979 0.0647676 -0.0221701 0.999754 44.5391 121.773)" fill="#DFA67B"/>
<ellipse cx="41.5253" cy="79.4733" rx="41.5253" ry="79.4733" transform="matrix(0.9979 0.0647676 -0.0221701 0.999754 44.5391 121.773)" fill="#DFA67B"/>
<ellipse cx="133.058" cy="136.62" rx="41.2621" ry="47.1542" transform="rotate(-14.5237 133.058 136.62)" fill="#DFA67B"/>
<ellipse cx="133.058" cy="136.62" rx="41.2621" ry="47.1542" transform="rotate(-14.5237 133.058 136.62)" fill="#DFA67B"/>
<ellipse cx="133.058" cy="136.62" rx="41.2621" ry="47.1542" transform="rotate(-14.5237 133.058 136.62)" fill="#DFA67B"/>
<ellipse cx="172.98" cy="126.276" rx="41.2621" ry="47.1542" transform="rotate(-14.5237 172.98 126.276)" fill="#DFA67B"/>
<ellipse cx="172.98" cy="126.276" rx="41.2621" ry="47.1542" transform="rotate(-14.5237 172.98 126.276)" fill="#DFA67B"/>
<ellipse cx="172.98" cy="126.276" rx="41.2621" ry="47.1542" transform="rotate(-14.5237 172.98 126.276)" fill="#DFA67B"/>
<ellipse cx="41.6764" cy="74.643" rx="41.6764" ry="74.643" transform="matrix(0.796773 -0.604279 0.562586 0.826738 162 122.742)" fill="#DFA67B"/>
<ellipse cx="41.6764" cy="74.643" rx="41.6764" ry="74.643" transform="matrix(0.796773 -0.604279 0.562586 0.826738 162 122.742)" fill="#DFA67B"/>
<ellipse cx="41.6764" cy="74.643" rx="41.6764" ry="74.643" transform="matrix(0.796773 -0.604279 0.562586 0.826738 162 122.742)" fill="#DFA67B"/>
<ellipse cx="204.625" cy="192.934" rx="5.43641" ry="5.8676" transform="rotate(-14.5237 204.625 192.934)" fill="#DFA67B"/>
<ellipse cx="204.625" cy="192.934" rx="5.43641" ry="5.8676" transform="rotate(-14.5237 204.625 192.934)" fill="#DFA67B"/>
<ellipse cx="204.625" cy="192.934" rx="5.43641" ry="5.8676" transform="rotate(-14.5237 204.625 192.934)" fill="black"/>
<path d="M183.133 247.852L177.877 227.564" stroke="black" stroke-width="4.80188" stroke-linecap="round"/>
<path d="M202.666 254.631C201.633 257.579 200.044 260.258 197.991 262.501C195.416 265.314 192.198 267.346 188.645 268.417C185.092 269.488 181.319 269.563 177.675 268.644C174.778 267.914 172.034 266.572 169.601 264.705L182.897 248.434L202.666 254.631Z" fill="#FFF2CC" stroke="black" stroke-width="4.80188"/>
<circle cx="311.793" cy="42.375" r="31.3566" transform="rotate(15.1423 311.793 42.375)" fill="white" stroke="black" stroke-width="6.27132"/>
<mask id="path-12-inside-1_539_866" fill="white">
<path d="M302.483 75.7296C297.17 74.2692 292.284 71.5571 288.234 67.8205C284.185 64.0839 281.089 59.4315 279.207 54.2528C277.325 49.0741 276.711 43.5198 277.416 38.055C278.122 32.5902 280.126 27.3739 283.262 22.8429L311.625 42.4708L302.483 75.7296Z"/>
</mask>
<path d="M302.483 75.7296C297.17 74.2692 292.284 71.5571 288.234 67.8205C284.185 64.0839 281.089 59.4315 279.207 54.2528C277.325 49.0741 276.711 43.5198 277.416 38.055C278.122 32.5902 280.126 27.3739 283.262 22.8429L311.625 42.4708L302.483 75.7296Z" fill="white" stroke="white" stroke-width="12.5426" mask="url(#path-12-inside-1_539_866)"/>
<path d="M301.07 68.7422L304.345 69.6283L307.727 70.5435L297.279 109.15L290.623 107.349L301.07 68.7422Z" fill="black"/>
<circle cx="290.408" cy="122.658" r="5.86134" transform="rotate(15.1423 290.408 122.658)" fill="black"/>
<path d="M87.8802 397.808C87.3082 397.999 87.0222 397.825 87.0222 397.288V375.37H90.3762V384.522H92.0402V374.98H95.3682V398.042L92.8982 398.848C92.3262 399.039 92.0402 398.865 92.0402 398.328V387.746H90.3762V397.002L87.8802 397.808ZM85.7742 390.138C85.7742 391.005 85.6355 391.741 85.3582 392.348C85.0982 392.955 84.7342 393.457 84.2662 393.856C83.7982 394.237 83.2435 394.523 82.6022 394.714C81.9782 394.887 81.3022 394.974 80.5742 394.974C79.8462 394.974 79.1615 394.887 78.5202 394.714C77.8789 394.523 77.3242 394.237 76.8562 393.856C76.3882 393.457 76.0155 392.955 75.7382 392.348C75.4782 391.741 75.3482 391.005 75.3482 390.138V386.524C75.3482 385.657 75.4782 384.921 75.7382 384.314C76.0155 383.69 76.3882 383.187 76.8562 382.806C77.3242 382.407 77.8789 382.121 78.5202 381.948C79.1615 381.757 79.8462 381.662 80.5742 381.662C81.3022 381.662 81.9782 381.757 82.6022 381.948C83.2435 382.121 83.7982 382.407 84.2662 382.806C84.7342 383.187 85.0982 383.69 85.3582 384.314C85.6355 384.921 85.7742 385.657 85.7742 386.524V390.138ZM74.8542 380.83V377.866H78.7802V375.084H82.3682V377.866H86.0862V380.83H74.8542ZM82.3942 386.628C82.3942 385.969 82.2209 385.493 81.8742 385.198C81.5275 384.886 81.0942 384.73 80.5742 384.73C80.0542 384.73 79.6209 384.886 79.2742 385.198C78.9275 385.493 78.7542 385.969 78.7542 386.628V390.008C78.7542 390.667 78.9275 391.152 79.2742 391.464C79.6209 391.776 80.0542 391.932 80.5742 391.932C81.0942 391.932 81.5275 391.776 81.8742 391.464C82.2209 391.152 82.3942 390.667 82.3942 390.008V386.628ZM118.198 393.648C118.198 394.237 118.094 394.818 117.886 395.39C117.678 395.979 117.34 396.508 116.872 396.976C116.404 397.444 115.797 397.817 115.052 398.094C114.307 398.389 113.405 398.536 112.348 398.536H107.2C106.143 398.536 105.241 398.389 104.496 398.094C103.751 397.817 103.144 397.444 102.676 396.976C102.208 396.508 101.87 395.979 101.662 395.39C101.454 394.818 101.35 394.237 101.35 393.648C101.35 393.059 101.454 392.478 101.662 391.906C101.87 391.317 102.208 390.788 102.676 390.32C103.144 389.852 103.751 389.479 104.496 389.202C105.241 388.907 106.143 388.76 107.2 388.76H112.348C113.405 388.76 114.307 388.907 115.052 389.202C115.797 389.479 116.404 389.852 116.872 390.32C117.34 390.788 117.678 391.317 117.886 391.906C118.094 392.478 118.198 393.059 118.198 393.648ZM99.2958 387.018V375.994H111.256V379.036H102.832V383.976H113.18V387.018H99.2958ZM115.26 388.37C114.688 388.578 114.402 388.405 114.402 387.85V374.98H117.938V379.634H121.526V382.754H117.938V387.434L115.26 388.37ZM114.61 393.648C114.61 393.059 114.428 392.608 114.064 392.296C113.7 391.967 113.189 391.802 112.53 391.802H107.018C106.359 391.802 105.848 391.967 105.484 392.296C105.12 392.608 104.938 393.059 104.938 393.648C104.938 394.237 105.12 394.688 105.484 395C105.848 395.329 106.359 395.494 107.018 395.494H112.53C113.189 395.494 113.7 395.329 114.064 395C114.428 394.688 114.61 394.237 114.61 393.648ZM135.697 389.046C135.697 390.069 135.533 390.953 135.203 391.698C134.874 392.426 134.423 393.033 133.851 393.518C133.297 393.986 132.638 394.333 131.875 394.558C131.113 394.783 130.298 394.896 129.431 394.896C128.565 394.896 127.75 394.783 126.987 394.558C126.225 394.333 125.557 393.986 124.985 393.518C124.431 393.033 123.989 392.426 123.659 391.698C123.33 390.953 123.165 390.069 123.165 389.046V387.668C123.165 386.645 123.33 385.77 123.659 385.042C123.989 384.297 124.431 383.69 124.985 383.222C125.557 382.737 126.225 382.381 126.987 382.156C127.75 381.931 128.565 381.818 129.431 381.818C130.298 381.818 131.113 381.931 131.875 382.156C132.638 382.381 133.297 382.737 133.851 383.222C134.423 383.69 134.874 384.297 135.203 385.042C135.533 385.77 135.697 386.645 135.697 387.668V389.046ZM138.921 398.848C138.349 399.056 138.063 398.883 138.063 398.328V374.98H141.599V384.574H145.343V387.694H141.599V397.912L138.921 398.848ZM122.437 380.83V377.866H127.611V375.084H131.251V377.866H136.217V380.83H122.437ZM132.135 387.616C132.135 386.68 131.875 385.987 131.355 385.536C130.853 385.085 130.211 384.86 129.431 384.86C128.651 384.86 128.001 385.085 127.481 385.536C126.979 385.987 126.727 386.68 126.727 387.616V389.098C126.727 390.034 126.979 390.727 127.481 391.178C128.001 391.629 128.651 391.854 129.431 391.854C130.211 391.854 130.853 391.629 131.355 391.178C131.875 390.727 132.135 390.034 132.135 389.098V387.616ZM148.751 384.574V375.474H152.339V381.558H165.859V384.574H148.751ZM145.761 389.748V386.732H168.329V389.748H145.761ZM148.751 398.25V391.126H152.339V395.208H165.859V398.25H148.751ZM179.406 398.406V388.864H195.474V398.406H179.406ZM185.308 387.304C184.718 387.512 184.424 387.347 184.424 386.81V379.036H175.948V375.994H187.986V379.738H191.938V374.98H195.474V387.174L192.796 388.11C192.224 388.318 191.938 388.145 191.938 387.59V382.858H187.986V386.394L185.308 387.304ZM191.938 391.906H182.942V395.364H191.938V391.906ZM211.829 388.942C211.275 389.133 210.997 388.968 210.997 388.448V386.186L208.553 387.876L204.835 383.196L200.883 388.162L198.231 386.316L203.067 380.31V375.526H206.629V380.336L210.997 385.744V375.24H214.377V379.712H216.379V374.98H219.759V388.084L217.211 388.942C216.657 389.133 216.379 388.968 216.379 388.448V382.936H214.377V388.084L211.829 388.942ZM217.081 398.848C216.509 399.056 216.223 398.883 216.223 398.328V392.738H203.171V389.696H219.759V397.912L217.081 398.848ZM232.396 398.562V391.828H244.85V390.528H232.396V387.746H248.464V394.35H236.01V395.78H248.854V398.562H232.396ZM238.298 386.836C237.709 386.992 237.414 386.819 237.414 386.316V379.036H228.938V375.994H240.976V377.294H244.928V374.98H248.464V386.082L245.786 386.992C245.214 387.2 244.928 387.035 244.928 386.498V384.782H240.976V386.082L238.298 386.836ZM240.976 381.844H244.928V380.206H240.976V381.844ZM268.772 398.848C268.2 399.056 267.914 398.883 267.914 398.328V374.98H271.45V383.846H275.09V386.966H271.45V397.912L268.772 398.848ZM251.482 394.142V391.048H255.72V384.756H259.334V391.048H266.952V394.142H251.482ZM262.584 388.916C261.994 389.124 261.7 388.959 261.7 388.422V379.686H252.834V376.644H265.262V388.006L262.584 388.916ZM292.433 398.848C291.861 399.056 291.575 398.883 291.575 398.328V374.98H295.111V383.274H298.855V386.394H295.111V397.912L292.433 398.848ZM285.361 393.934C284.772 394.142 284.477 393.969 284.477 393.414V379.79H276.417V376.748H288.039V392.998L285.361 393.934ZM159.877 416.85C159.305 417.058 159.019 416.885 159.019 416.33V411.728H155.847C155.743 412.508 155.5 413.175 155.119 413.73C154.755 414.285 154.295 414.744 153.741 415.108C153.186 415.455 152.545 415.715 151.817 415.888C151.106 416.044 150.352 416.122 149.555 416.122C148.688 416.122 147.865 416.027 147.085 415.836C146.322 415.628 145.646 415.307 145.057 414.874C144.485 414.441 144.025 413.895 143.679 413.236C143.349 412.577 143.185 411.78 143.185 410.844V409.752C143.185 408.816 143.349 408.019 143.679 407.36C144.025 406.701 144.485 406.155 145.057 405.722C145.646 405.289 146.322 404.977 147.085 404.786C147.865 404.578 148.688 404.474 149.555 404.474C150.335 404.474 151.071 404.552 151.765 404.708C152.458 404.864 153.082 405.115 153.637 405.462C154.209 405.791 154.677 406.216 155.041 406.736C155.422 407.256 155.682 407.88 155.821 408.608H159.019V403.98H162.555V415.914L159.877 416.85ZM145.707 427.51V417.5H148.879V419.58H151.037V417.5H154.209V425.716L157.199 421.426V417.5H160.813V421.4L164.167 426.236L161.437 427.978L159.019 424.442L156.601 427.978L154.209 426.47V427.51H145.707ZM152.389 409.882C152.389 409.067 152.12 408.478 151.583 408.114C151.063 407.733 150.387 407.542 149.555 407.542C148.723 407.542 148.038 407.733 147.501 408.114C146.981 408.478 146.721 409.067 146.721 409.882V410.714C146.721 411.529 146.981 412.127 147.501 412.508C148.038 412.872 148.723 413.054 149.555 413.054C150.387 413.054 151.063 412.872 151.583 412.508C152.12 412.127 152.389 411.529 152.389 410.714V409.882ZM151.037 422.44H148.879V424.624H151.037V422.44ZM168.692 427.51V418.28H172.228V420.022H182.004V418.28H185.54V427.51H168.692ZM185.28 413.496L177.116 409.206L168.952 413.496L167.158 410.896L175.27 406.606V404.084H178.962V406.606L187.074 410.896L185.28 413.496ZM165.832 417.188V414.224H188.4V417.188H165.832ZM182.004 422.83H172.228V424.65H182.004V422.83ZM207.304 427.848C206.732 428.056 206.446 427.883 206.446 427.328V403.98H209.982V426.912L207.304 427.848ZM191.47 421.478V405.514H195.058V418.436H204.964V421.478H191.47ZM214.638 421.66V405.748H226.182V408.79H218.174V418.618H227.95V421.66H214.638ZM230.29 427.848C229.718 428.056 229.432 427.883 229.432 427.328V403.98H232.968V412.014H236.712V415.134H232.968V426.912L230.29 427.848Z" fill="#BABABA"/>
</svg>
