<svg width="374" height="82" viewBox="0 0 374 82" fill="none" xmlns="http://www.w3.org/2000/svg">
<path d="M339 80H372.208" stroke="#FFF2CC" stroke-width="2.53846" stroke-linecap="round"/>
<path d="M2 80.3984L276.453 79.9977" stroke="#FFF2CC" stroke-width="2.53846" stroke-linecap="round"/>
<path d="M2 79.1284C1.2986 79.1284 0.73 79.697 0.73 80.3984C0.73 81.0998 1.2986 81.6684 2 81.6684V79.1284ZM2 81.6684H70.5V79.1284H2V81.6684Z" fill="#DFA67B"/>
<path d="M276.508 80.3438V47.1362" stroke="#FFF2CC" stroke-width="2.53846" stroke-linecap="round"/>
<path d="M291.883 80.2109V47.0034" stroke="#FFF2CC" stroke-width="2.53846" stroke-linecap="round"/>
<path d="M291.883 46H325.09" stroke="#FFF2CC" stroke-width="2.53846" stroke-linecap="round"/>
<path d="M324.883 80.2109V47.0034" stroke="#FFF2CC" stroke-width="2.53846" stroke-linecap="round"/>
<path d="M338.43 80.3438V47.1362" stroke="#FFF2CC" stroke-width="2.53846" stroke-linecap="round"/>
<path d="M257 47.1406H276.094" stroke="#FFF2CC" stroke-width="2.53846" stroke-linecap="round"/>
<path d="M297.883 2L317.883 2" stroke="#FFF2CC" stroke-width="2.53846" stroke-linecap="round"/>
<path d="M339.258 47.1406H358.352" stroke="#FFF2CC" stroke-width="2.53846" stroke-linecap="round"/>
<path d="M257.297 46.4219L297.296 2.00419" stroke="#FFF2CC" stroke-width="2.53846" stroke-linecap="round"/>
<path d="M358.148 46.4219L318.152 2.00145" stroke="#FFF2CC" stroke-width="2.53846" stroke-linecap="round"/>
</svg>
