<svg width="270" height="208" viewBox="0 0 270 208" fill="none" xmlns="http://www.w3.org/2000/svg">
<ellipse cx="138.486" cy="121.939" rx="82.9933" ry="85.2987" fill="#DFA67B"/>
<ellipse cx="138.486" cy="121.939" rx="82.9933" ry="85.2987" fill="#DFA67B"/>
<ellipse cx="138.486" cy="121.939" rx="82.9933" ry="85.2987" fill="#DFA67B"/>
<circle cx="106.212" cy="105.822" r="4.61074" fill="#DFA67B"/>
<circle cx="106.212" cy="105.822" r="4.61074" fill="#DFA67B"/>
<circle cx="106.212" cy="105.822" r="4.61074" fill="black"/>
<circle cx="170.767" cy="105.822" r="4.61074" fill="#DFA67B"/>
<circle cx="170.767" cy="105.822" r="4.61074" fill="#DFA67B"/>
<circle cx="170.767" cy="105.822" r="4.61074" fill="black"/>
<circle cx="138.503" cy="128.846" r="9.22148" fill="#DFA67B"/>
<circle cx="138.503" cy="128.846" r="9.22148" fill="#DFA67B"/>
<circle cx="138.503" cy="128.846" r="9.22148" fill="black"/>
<ellipse cx="58.0084" cy="88.0466" rx="39.1669" ry="70.3642" transform="rotate(16.977 58.0084 88.0466)" fill="#DFA67B"/>
<ellipse cx="58.0084" cy="88.0466" rx="39.1669" ry="70.3642" transform="rotate(16.977 58.0084 88.0466)" fill="#DFA67B"/>
<ellipse cx="58.0084" cy="88.0466" rx="39.1669" ry="70.3642" transform="rotate(16.977 58.0084 88.0466)" fill="#DFA67B"/>
<ellipse cx="118.941" cy="41.4967" rx="39.1913" ry="41.4967" fill="#DFA67B"/>
<ellipse cx="118.941" cy="41.4967" rx="39.1913" ry="41.4967" fill="#DFA67B"/>
<ellipse cx="118.941" cy="41.4967" rx="39.1913" ry="41.4967" fill="#DFA67B"/>
<ellipse cx="158.105" cy="41.4967" rx="39.1913" ry="41.4967" fill="#DFA67B"/>
<ellipse cx="158.105" cy="41.4967" rx="39.1913" ry="41.4967" fill="#DFA67B"/>
<ellipse cx="158.105" cy="41.4967" rx="39.1913" ry="41.4967" fill="#DFA67B"/>
<ellipse cx="209.294" cy="83.775" rx="39.1669" ry="66.3007" transform="rotate(-21.1408 209.294 83.775)" fill="#DFA67B"/>
<ellipse cx="209.294" cy="83.775" rx="39.1669" ry="66.3007" transform="rotate(-21.1408 209.294 83.775)" fill="#DFA67B"/>
<ellipse cx="209.294" cy="83.775" rx="39.1669" ry="66.3007" transform="rotate(-21.1408 209.294 83.775)" fill="#DFA67B"/>
<path d="M138.484 147.305V128.862" stroke="black" stroke-width="4.61074" stroke-linecap="round"/>
<path d="M154.687 157.478C153.069 159.674 151.03 161.535 148.681 162.949C145.67 164.761 142.248 165.779 138.736 165.907C135.224 166.034 131.737 165.268 128.602 163.679C126.156 162.439 123.988 160.731 122.215 158.659L138.081 147.891L154.687 157.478Z" fill="#FFF2CC" stroke="black" stroke-width="4.61074"/>
</svg>
