<svg width="338" height="400" viewBox="0 0 338 400" fill="none" xmlns="http://www.w3.org/2000/svg">
<ellipse cx="145.808" cy="138.561" rx="87.3787" ry="96.928" fill="#DFA67B"/>
<ellipse cx="145.808" cy="138.561" rx="87.3787" ry="96.928" fill="#DFA67B"/>
<ellipse cx="145.808" cy="138.561" rx="87.3787" ry="96.928" fill="#DFA67B"/>
<ellipse cx="112.897" cy="119.086" rx="5.92858" ry="6.3988" fill="#DFA67B"/>
<ellipse cx="112.897" cy="119.086" rx="5.92858" ry="6.3988" fill="#DFA67B"/>
<ellipse cx="112.897" cy="119.086" rx="5.92858" ry="6.3988" fill="black"/>
<ellipse cx="145.818" cy="146.416" rx="9.70866" ry="10.4787" fill="#DFA67B"/>
<ellipse cx="145.818" cy="146.416" rx="9.70866" ry="10.4787" fill="#DFA67B"/>
<ellipse cx="145.818" cy="146.416" rx="9.70866" ry="10.4787" fill="black"/>
<ellipse cx="41.5253" cy="79.4733" rx="41.5253" ry="79.4733" transform="matrix(0.949769 0.312951 -0.27218 0.962246 43.2656 10.5859)" fill="#DFA67B"/>
<ellipse cx="41.5253" cy="79.4733" rx="41.5253" ry="79.4733" transform="matrix(0.949769 0.312951 -0.27218 0.962246 43.2656 10.5859)" fill="#DFA67B"/>
<ellipse cx="41.5253" cy="79.4733" rx="41.5253" ry="79.4733" transform="matrix(0.949769 0.312951 -0.27218 0.962246 43.2656 10.5859)" fill="#DFA67B"/>
<ellipse cx="125.223" cy="47.1542" rx="41.2621" ry="47.1542" fill="#DFA67B"/>
<ellipse cx="125.223" cy="47.1542" rx="41.2621" ry="47.1542" fill="#DFA67B"/>
<ellipse cx="125.223" cy="47.1542" rx="41.2621" ry="47.1542" fill="#DFA67B"/>
<ellipse cx="166.465" cy="47.1542" rx="41.2621" ry="47.1542" fill="#DFA67B"/>
<ellipse cx="166.465" cy="47.1542" rx="41.2621" ry="47.1542" fill="#DFA67B"/>
<ellipse cx="166.465" cy="47.1542" rx="41.2621" ry="47.1542" fill="#DFA67B"/>
<ellipse cx="41.6764" cy="74.643" rx="41.6764" ry="74.643" transform="matrix(0.922852 -0.385154 0.337279 0.941405 156.727 40.9766)" fill="#DFA67B"/>
<ellipse cx="41.6764" cy="74.643" rx="41.6764" ry="74.643" transform="matrix(0.922852 -0.385154 0.337279 0.941405 156.727 40.9766)" fill="#DFA67B"/>
<ellipse cx="41.6764" cy="74.643" rx="41.6764" ry="74.643" transform="matrix(0.922852 -0.385154 0.337279 0.941405 156.727 40.9766)" fill="#DFA67B"/>
<ellipse cx="180.382" cy="119.618" rx="5.43641" ry="5.8676" fill="#DFA67B"/>
<ellipse cx="180.382" cy="119.618" rx="5.43641" ry="5.8676" fill="#DFA67B"/>
<ellipse cx="180.382" cy="119.618" rx="5.43641" ry="5.8676" fill="black"/>
<path d="M145.812 167.391V146.433" stroke="black" stroke-width="4.80188" stroke-linecap="round"/>
<path d="M163.019 178.849C161.279 181.444 159.07 183.639 156.52 185.295C153.321 187.373 149.697 188.533 145.989 188.679C142.281 188.824 138.609 187.951 135.312 186.147C132.692 184.714 130.371 182.726 128.484 180.309L145.436 167.892L163.019 178.849Z" fill="#FFF2CC" stroke="black" stroke-width="4.80188"/>
<path d="M185.697 299.403L219.405 287.116L193.759 264.443L185.697 299.403Z" fill="black"/>
<rect width="44.1977" height="142.295" transform="matrix(0.749191 0.662354 0.662354 -0.749191 196.609 253.414)" fill="#FFD966"/>
<path d="M290.859 146.805L323.972 176.079L334.444 164.234C335.89 162.599 335.736 160.101 334.101 158.655L306.911 134.616C305.275 133.17 302.777 133.324 301.332 134.96L290.859 146.805Z" fill="#F4B183"/>
<rect width="5.03063" height="142.295" transform="matrix(0.749191 0.662354 0.662354 -0.749191 201.188 257.461)" fill="#D9D9D9"/>
<rect width="5.03063" height="142.295" transform="matrix(0.749191 0.662354 0.662354 -0.749191 211.148 266.266)" fill="#D9D9D9"/>
<rect width="5.03063" height="142.295" transform="matrix(0.749191 0.662354 0.662354 -0.749191 221.375 275.305)" fill="#D9D9D9"/>
<path d="M193.607 264.67L219.181 287.28L229.718 282.686L196.605 253.412L193.607 264.67Z" fill="#F8BC8F"/>
<path d="M76.1405 349.98L71.3045 345.82L66.2345 350.24L63.8945 348.004L69.5105 343.168V341.036H64.8825V337.994H77.5705V341.036H73.0985V343.142L78.5065 347.744L76.1405 349.98ZM81.1065 360.848C80.5345 361.056 80.2485 360.883 80.2485 360.328V354.582H67.7165V351.54H83.7845V359.912L81.1065 360.848ZM81.1065 350.786C80.5345 350.994 80.2485 350.829 80.2485 350.292V336.98H83.7845V341.764H87.3725V344.884H83.7845V349.876L81.1065 350.786ZM108.59 355.648C108.59 356.237 108.486 356.818 108.278 357.39C108.07 357.979 107.732 358.508 107.264 358.976C106.796 359.444 106.189 359.817 105.444 360.094C104.699 360.389 103.797 360.536 102.74 360.536H97.3321C96.2748 360.536 95.3735 360.389 94.6281 360.094C93.8828 359.817 93.2761 359.444 92.8081 358.976C92.3401 358.508 92.0021 357.979 91.7941 357.39C91.5861 356.818 91.4821 356.237 91.4821 355.648C91.4821 355.059 91.5861 354.478 91.7941 353.906C92.0021 353.317 92.3401 352.788 92.8081 352.32C93.2761 351.852 93.8828 351.479 94.6281 351.202C95.3735 350.907 96.2748 350.76 97.3321 350.76H102.74C103.797 350.76 104.699 350.907 105.444 351.202C106.189 351.479 106.796 351.852 107.264 352.32C107.732 352.788 108.07 353.317 108.278 353.906C108.486 354.478 108.59 355.059 108.59 355.648ZM100.426 349.538L95.1481 344.39L89.6101 349.824L87.2181 347.666L93.3281 341.712V337.474H96.9421V341.686L102.844 347.38L100.426 349.538ZM105.652 350.37C105.08 350.578 104.794 350.405 104.794 349.85V343.402H100.556V340.256H104.794V336.98H108.33V349.434L105.652 350.37ZM105.002 355.648C105.002 355.059 104.82 354.608 104.456 354.296C104.092 353.967 103.581 353.802 102.922 353.802H97.1501C96.4915 353.802 95.9801 353.967 95.6161 354.296C95.2521 354.608 95.0701 355.059 95.0701 355.648C95.0701 356.237 95.2521 356.688 95.6161 357C95.9801 357.329 96.4915 357.494 97.1501 357.494H102.922C103.581 357.494 104.092 357.329 104.456 357C104.82 356.688 105.002 356.237 105.002 355.648ZM111.608 352.32V349.33H118.056V347.068H113.428V337.864H125.908V340.88H116.964V344.052H126.168V347.068H121.67V349.33H127.598V352.32H111.608ZM115.898 360.25V353.49H119.486V357.208H132.486V360.25H115.898ZM129.418 354.686C128.846 354.894 128.56 354.729 128.56 354.192V336.98H132.096V353.776L129.418 354.686ZM143.692 360.562V353.776H156.926V352.372H143.692V349.616H160.54V356.272H147.306V357.806H160.93V360.562H143.692ZM140.832 348.134V345.196H157.004V340.776H143.432V337.734H160.54V345.196H163.4V348.134H140.832ZM182.304 360.848C181.732 361.056 181.446 360.883 181.446 360.328V336.98H184.982V359.912L182.304 360.848ZM178.326 349.72C178.326 350.743 178.161 351.627 177.832 352.372C177.503 353.1 177.061 353.698 176.506 354.166C175.951 354.634 175.293 354.981 174.53 355.206C173.767 355.431 172.961 355.544 172.112 355.544C171.245 355.544 170.439 355.431 169.694 355.206C168.949 354.981 168.29 354.634 167.718 354.166C167.163 353.698 166.721 353.1 166.392 352.372C166.08 351.627 165.924 350.743 165.924 349.72V344.052C165.924 343.029 166.08 342.154 166.392 341.426C166.721 340.681 167.163 340.074 167.718 339.606C168.29 339.138 168.949 338.791 169.694 338.566C170.439 338.341 171.245 338.228 172.112 338.228C172.961 338.228 173.767 338.341 174.53 338.566C175.293 338.791 175.951 339.138 176.506 339.606C177.061 340.074 177.503 340.681 177.832 341.426C178.161 342.154 178.326 343.029 178.326 344.052V349.72ZM174.764 343.948C174.764 343.012 174.513 342.336 174.01 341.92C173.507 341.504 172.875 341.296 172.112 341.296C171.349 341.296 170.717 341.504 170.214 341.92C169.711 342.336 169.46 343.012 169.46 343.948V349.824C169.46 350.76 169.711 351.436 170.214 351.852C170.717 352.268 171.349 352.476 172.112 352.476C172.875 352.476 173.507 352.268 174.01 351.852C174.513 351.436 174.764 350.76 174.764 349.824V343.948ZM211.633 349.85C211.061 350.058 210.775 349.885 210.775 349.33V344.728H207.603C207.499 345.508 207.256 346.175 206.875 346.73C206.511 347.285 206.051 347.744 205.497 348.108C204.942 348.455 204.301 348.715 203.573 348.888C202.862 349.044 202.108 349.122 201.311 349.122C200.444 349.122 199.621 349.027 198.841 348.836C198.078 348.628 197.402 348.307 196.813 347.874C196.241 347.441 195.781 346.895 195.435 346.236C195.105 345.577 194.941 344.78 194.941 343.844V342.752C194.941 341.816 195.105 341.019 195.435 340.36C195.781 339.701 196.241 339.155 196.813 338.722C197.402 338.289 198.078 337.977 198.841 337.786C199.621 337.578 200.444 337.474 201.311 337.474C202.091 337.474 202.827 337.552 203.521 337.708C204.214 337.864 204.838 338.115 205.393 338.462C205.965 338.791 206.433 339.216 206.797 339.736C207.178 340.256 207.438 340.88 207.577 341.608H210.775V336.98H214.311V348.914L211.633 349.85ZM197.463 360.51V350.5H200.635V352.58H202.793V350.5H205.965V358.716L208.955 354.426V350.5H212.569V354.4L215.923 359.236L213.193 360.978L210.775 357.442L208.357 360.978L205.965 359.47V360.51H197.463ZM204.145 342.882C204.145 342.067 203.876 341.478 203.339 341.114C202.819 340.733 202.143 340.542 201.311 340.542C200.479 340.542 199.794 340.733 199.257 341.114C198.737 341.478 198.477 342.067 198.477 342.882V343.714C198.477 344.529 198.737 345.127 199.257 345.508C199.794 345.872 200.479 346.054 201.311 346.054C202.143 346.054 202.819 345.872 203.339 345.508C203.876 345.127 204.145 344.529 204.145 343.714V342.882ZM202.793 355.44H200.635V357.624H202.793V355.44ZM231.238 349.824C231.238 350.847 231.074 351.731 230.744 352.476C230.432 353.204 229.99 353.802 229.418 354.27C228.864 354.738 228.214 355.085 227.468 355.31C226.723 355.535 225.926 355.648 225.076 355.648C224.227 355.648 223.43 355.535 222.684 355.31C221.939 355.085 221.28 354.738 220.708 354.27C220.154 353.802 219.712 353.204 219.382 352.476C219.07 351.731 218.914 350.847 218.914 349.824V344.052C218.914 343.029 219.07 342.154 219.382 341.426C219.712 340.681 220.154 340.074 220.708 339.606C221.28 339.138 221.939 338.791 222.684 338.566C223.43 338.341 224.227 338.228 225.076 338.228C225.926 338.228 226.723 338.341 227.468 338.566C228.214 338.791 228.864 339.138 229.418 339.606C229.99 340.074 230.432 340.681 230.744 341.426C231.074 342.154 231.238 343.029 231.238 344.052V345.144H234.436V336.98H237.972V359.912L235.294 360.848C234.722 361.056 234.436 360.883 234.436 360.328V348.264H231.238V349.824ZM227.702 343.948C227.702 343.012 227.451 342.336 226.948 341.92C226.463 341.504 225.839 341.296 225.076 341.296C224.314 341.296 223.681 341.504 223.178 341.92C222.693 342.336 222.45 343.012 222.45 343.948V349.928C222.45 350.864 222.693 351.54 223.178 351.956C223.681 352.372 224.314 352.58 225.076 352.58C225.839 352.58 226.463 352.372 226.948 351.956C227.451 351.54 227.702 350.864 227.702 349.928V343.948ZM261.452 344.676C261.452 345.543 261.322 346.366 261.062 347.146C260.802 347.926 260.386 348.611 259.814 349.2C259.242 349.789 258.505 350.257 257.604 350.604C256.72 350.933 255.645 351.098 254.38 351.098H250.896C249.631 351.098 248.547 350.933 247.646 350.604C246.762 350.257 246.034 349.789 245.462 349.2C244.89 348.611 244.474 347.926 244.214 347.146C243.954 346.366 243.824 345.543 243.824 344.676C243.824 343.809 243.954 342.986 244.214 342.206C244.474 341.426 244.89 340.75 245.462 340.178C246.034 339.589 246.762 339.121 247.646 338.774C248.547 338.427 249.631 338.254 250.896 338.254H254.38C255.645 338.254 256.72 338.427 257.604 338.774C258.505 339.121 259.242 339.589 259.814 340.178C260.386 340.75 260.802 341.426 261.062 342.206C261.322 342.986 261.452 343.809 261.452 344.676ZM241.354 358.222V355.128H246.658V351.644H250.22V355.128H255.056V351.644H258.618V355.128H263.922V358.222H241.354ZM257.864 344.676C257.864 343.636 257.569 342.813 256.98 342.206C256.391 341.599 255.472 341.296 254.224 341.296H251.052C249.804 341.296 248.885 341.599 248.296 342.206C247.707 342.813 247.412 343.636 247.412 344.676C247.412 345.716 247.707 346.539 248.296 347.146C248.885 347.753 249.804 348.056 251.052 348.056H254.224C255.472 348.056 256.391 347.753 256.98 347.146C257.569 346.539 257.864 345.716 257.864 344.676ZM44.9948 384.362L40.1068 378.018L35.0108 384.674L32.3068 382.828L38.3128 375.028V370.79H33.4508V367.748H46.6068V370.79H41.9008V375.028L47.6988 382.516L44.9948 384.362ZM50.2728 389.848C49.7008 390.056 49.4148 389.883 49.4148 389.328V365.98H52.9508V388.912L50.2728 389.848ZM59.1924 389.406V380.176H76.0404V389.406H59.1924ZM56.3324 377.966V375.002H72.5044V369.776H58.9324V366.734H76.0404V375.002H78.9004V377.966H56.3324ZM72.5044 383.192H62.7284V386.39H72.5044V383.192ZM88.417 389.562V382.776H101.651V381.372H88.417V378.616H105.265V385.272H92.031V386.806H105.655V389.562H88.417ZM85.557 377.134V374.196H101.729V369.776H88.157V366.734H105.265V374.196H108.125V377.134H85.557ZM129.551 370.4C129.551 370.885 129.464 371.371 129.291 371.856C129.135 372.324 128.866 372.757 128.485 373.156C128.103 373.537 127.601 373.849 126.977 374.092C126.37 374.335 125.625 374.456 124.741 374.456H116.473C115.589 374.456 114.835 374.335 114.211 374.092C113.604 373.849 113.11 373.537 112.729 373.156C112.347 372.757 112.07 372.324 111.897 371.856C111.741 371.371 111.663 370.885 111.663 370.4C111.663 369.932 111.741 369.455 111.897 368.97C112.07 368.485 112.347 368.051 112.729 367.67C113.11 367.271 113.604 366.951 114.211 366.708C114.835 366.465 115.589 366.344 116.473 366.344H124.741C125.625 366.344 126.37 366.465 126.977 366.708C127.601 366.951 128.103 367.271 128.485 367.67C128.866 368.051 129.135 368.485 129.291 368.97C129.464 369.455 129.551 369.932 129.551 370.4ZM109.323 378.33V375.444H131.891V378.33H109.323ZM112.183 389.562V383.166H125.417V382.126H112.183V379.396H129.031V385.662H115.797V386.832H129.421V389.562H112.183ZM125.963 370.4C125.963 370.053 125.841 369.793 125.599 369.62C125.373 369.447 125.061 369.36 124.663 369.36H116.551C116.152 369.36 115.831 369.447 115.589 369.62C115.363 369.793 115.251 370.053 115.251 370.4C115.251 370.747 115.363 371.015 115.589 371.206C115.831 371.379 116.152 371.466 116.551 371.466H124.663C125.061 371.466 125.373 371.379 125.599 371.206C125.841 371.015 125.963 370.747 125.963 370.4ZM150.611 378.98L145.775 374.82L140.705 379.24L138.365 377.004L143.981 372.168V370.036H139.353V366.994H152.041V370.036H147.569V372.142L152.977 376.744L150.611 378.98ZM155.577 389.848C155.005 390.056 154.719 389.883 154.719 389.328V383.582H142.187V380.54H158.255V388.912L155.577 389.848ZM155.577 379.786C155.005 379.994 154.719 379.829 154.719 379.292V365.98H158.255V370.764H161.843V373.884H158.255V378.876L155.577 379.786ZM183.061 384.648C183.061 385.237 182.957 385.818 182.749 386.39C182.541 386.979 182.203 387.508 181.735 387.976C181.267 388.444 180.66 388.817 179.915 389.094C179.17 389.389 178.268 389.536 177.211 389.536H171.803C170.746 389.536 169.844 389.389 169.099 389.094C168.354 388.817 167.747 388.444 167.279 387.976C166.811 387.508 166.473 386.979 166.265 386.39C166.057 385.818 165.953 385.237 165.953 384.648C165.953 384.059 166.057 383.478 166.265 382.906C166.473 382.317 166.811 381.788 167.279 381.32C167.747 380.852 168.354 380.479 169.099 380.202C169.844 379.907 170.746 379.76 171.803 379.76H177.211C178.268 379.76 179.17 379.907 179.915 380.202C180.66 380.479 181.267 380.852 181.735 381.32C182.203 381.788 182.541 382.317 182.749 382.906C182.957 383.478 183.061 384.059 183.061 384.648ZM174.897 378.538L169.619 373.39L164.081 378.824L161.689 376.666L167.799 370.712V366.474H171.413V370.686L177.315 376.38L174.897 378.538ZM180.123 379.37C179.551 379.578 179.265 379.405 179.265 378.85V372.402H175.027V369.256H179.265V365.98H182.801V378.434L180.123 379.37ZM179.473 384.648C179.473 384.059 179.291 383.608 178.927 383.296C178.563 382.967 178.052 382.802 177.393 382.802H171.621C170.962 382.802 170.451 382.967 170.087 383.296C169.723 383.608 169.541 384.059 169.541 384.648C169.541 385.237 169.723 385.688 170.087 386C170.451 386.329 170.962 386.494 171.621 386.494H177.393C178.052 386.494 178.563 386.329 178.927 386C179.291 385.688 179.473 385.237 179.473 384.648ZM199.494 388.808C198.922 388.999 198.636 388.825 198.636 388.288V366.37H201.99V375.522H203.654V365.98H206.982V389.042L204.512 389.848C203.94 390.039 203.654 389.865 203.654 389.328V378.746H201.99V388.002L199.494 388.808ZM197.388 381.138C197.388 382.005 197.25 382.741 196.972 383.348C196.712 383.955 196.348 384.457 195.88 384.856C195.412 385.237 194.858 385.523 194.216 385.714C193.592 385.887 192.916 385.974 192.188 385.974C191.46 385.974 190.776 385.887 190.134 385.714C189.493 385.523 188.938 385.237 188.47 384.856C188.002 384.457 187.63 383.955 187.352 383.348C187.092 382.741 186.962 382.005 186.962 381.138V377.524C186.962 376.657 187.092 375.921 187.352 375.314C187.63 374.69 188.002 374.187 188.47 373.806C188.938 373.407 189.493 373.121 190.134 372.948C190.776 372.757 191.46 372.662 192.188 372.662C192.916 372.662 193.592 372.757 194.216 372.948C194.858 373.121 195.412 373.407 195.88 373.806C196.348 374.187 196.712 374.69 196.972 375.314C197.25 375.921 197.388 376.657 197.388 377.524V381.138ZM186.468 371.83V368.866H190.394V366.084H193.982V368.866H197.7V371.83H186.468ZM194.008 377.628C194.008 376.969 193.835 376.493 193.488 376.198C193.142 375.886 192.708 375.73 192.188 375.73C191.668 375.73 191.235 375.886 190.888 376.198C190.542 376.493 190.368 376.969 190.368 377.628V381.008C190.368 381.667 190.542 382.152 190.888 382.464C191.235 382.776 191.668 382.932 192.188 382.932C192.708 382.932 193.142 382.776 193.488 382.464C193.835 382.152 194.008 381.667 194.008 381.008V377.628ZM215.303 387.3V384.206H224.793V380.54H218.293V367.592H221.829V371.05H231.345V367.592H234.881V380.54H228.381V384.206H237.871V387.3H215.303ZM231.345 374.04H221.829V377.55H231.345V374.04ZM248.377 384.128L245.153 378.148L241.591 384.44L238.679 382.958L243.411 374.664V367.28H246.947V374.794L251.289 382.646L248.377 384.128ZM252.537 388.808C251.965 388.999 251.679 388.825 251.679 388.288V375.47H248.689V372.35H251.679V366.37H255.085V387.95L252.537 388.808ZM257.425 389.848C256.87 390.039 256.593 389.865 256.593 389.328V365.98H259.973V388.99L257.425 389.848ZM282.932 373.676C282.932 374.543 282.802 375.366 282.542 376.146C282.282 376.926 281.866 377.611 281.294 378.2C280.722 378.789 279.986 379.257 279.084 379.604C278.2 379.933 277.126 380.098 275.86 380.098H272.376C271.111 380.098 270.028 379.933 269.126 379.604C268.242 379.257 267.514 378.789 266.942 378.2C266.37 377.611 265.954 376.926 265.694 376.146C265.434 375.366 265.304 374.543 265.304 373.676C265.304 372.809 265.434 371.986 265.694 371.206C265.954 370.426 266.37 369.75 266.942 369.178C267.514 368.589 268.242 368.121 269.126 367.774C270.028 367.427 271.111 367.254 272.376 367.254H275.86C277.126 367.254 278.2 367.427 279.084 367.774C279.986 368.121 280.722 368.589 281.294 369.178C281.866 369.75 282.282 370.426 282.542 371.206C282.802 371.986 282.932 372.809 282.932 373.676ZM262.834 387.222V384.128H268.138V380.644H271.7V384.128H276.536V380.644H280.098V384.128H285.402V387.222H262.834ZM279.344 373.676C279.344 372.636 279.05 371.813 278.46 371.206C277.871 370.599 276.952 370.296 275.704 370.296H272.532C271.284 370.296 270.366 370.599 269.776 371.206C269.187 371.813 268.892 372.636 268.892 373.676C268.892 374.716 269.187 375.539 269.776 376.146C270.366 376.753 271.284 377.056 272.532 377.056H275.704C276.952 377.056 277.871 376.753 278.46 376.146C279.05 375.539 279.344 374.716 279.344 373.676ZM292.658 382.464H289.382L288.914 366.838H293.126L292.658 382.464ZM289.122 388.938V385.142H292.918V388.938H289.122Z" fill="#BABABA"/>
</svg>
